<?xml version="1.0" standalone="no"?>
<!DOCTYPE svg PUBLIC "-//W3C//DTD SVG 20010904//EN"
 "http://www.w3.org/TR/2001/REC-SVG-20010904/DTD/svg10.dtd">
<svg version="1.0" xmlns="http://www.w3.org/2000/svg"
 width="512.000000pt" height="512.000000pt" viewBox="0 0 512.000000 512.000000"
 preserveAspectRatio="xMidYMid meet">

<g transform="translate(0.000000,512.000000) scale(0.100000,-0.100000)"
fill="#382b72" stroke="none">
<path d="M2380 4590 c-572 -55 -1090 -340 -1435 -790 -280 -365 -418 -775
-418 -1240 0 -465 138 -875 418 -1240 321 -419 787 -692 1320 -776 149 -23
441 -23 590 0 451 71 840 269 1157 589 302 306 495 693 564 1132 23 149 23
441 0 590 -116 736 -595 1336 -1282 1605 -271 106 -630 157 -914 130z m126
-724 c34 -7 78 -23 98 -35 40 -25 89 -79 81 -90 -2 -5 21 -11 51 -14 124 -13
174 -83 181 -252 3 -55 11 -117 19 -138 33 -87 5 -211 -56 -245 -17 -9 -33
-28 -36 -42 -15 -65 -39 -130 -70 -188 -49 -90 -48 -147 4 -209 33 -41 75 -67
138 -87 19 -6 24 -1 37 37 66 194 268 331 487 331 180 -1 332 -85 432 -238
165 -254 69 -604 -202 -741 -156 -79 -379 -70 -514 22 -107 73 -187 182 -222
300 -13 46 -14 46 -8 8 3 -22 8 -48 11 -58 4 -17 0 -18 -31 -14 -20 3 -36 2
-36 -1 0 -13 52 -72 64 -72 19 0 14 -35 -7 -57 -9 -10 -42 -52 -73 -93 -92
-122 -160 -179 -286 -239 -98 -46 -116 -48 -189 -15 -142 62 -219 125 -322
259 -72 94 -82 105 -96 105 -6 0 -11 5 -11 10 0 6 5 10 12 10 15 0 91 80 83
88 -3 3 -31 4 -63 3 l-57 -2 -33 100 c-17 55 -32 106 -32 114 0 22 -21 26 -59
11 -18 -8 -40 -14 -49 -14 -24 0 -155 -62 -177 -85 -12 -11 -24 -28 -28 -38
-3 -9 -13 -17 -22 -17 -8 0 -15 -7 -15 -16 0 -8 5 -12 10 -9 6 3 10 2 10 -4 0
-5 -4 -13 -10 -16 -5 -3 -10 -1 -10 4 0 6 -3 11 -8 11 -8 0 -38 -61 -34 -72 1
-4 -3 -20 -9 -35 -6 -15 -17 -75 -25 -133 -8 -58 -17 -120 -20 -139 -6 -27 -4
-32 7 -26 8 5 6 0 -3 -12 -10 -11 -18 -28 -18 -38 0 -10 -2 -16 -5 -13 -3 3 8
101 25 218 32 227 47 274 105 345 53 66 118 100 306 164 268 91 260 87 302
139 33 42 37 53 37 105 0 44 -6 67 -25 96 -25 41 -59 132 -70 191 -5 26 -15
39 -38 50 -82 40 -104 231 -33 288 16 12 25 33 30 67 27 203 101 332 224 392
86 42 152 50 248 29z m-623 -1631 c-3 -9 -8 -14 -10 -11 -3 3 -2 9 2 15 9 16
15 13 8 -4z m-376 -37 c-3 -8 -6 -5 -6 6 -1 11 2 17 5 13 3 -3 4 -12 1 -19z
m-20 -20 c-3 -8 -6 -5 -6 6 -1 11 2 17 5 13 3 -3 4 -12 1 -19z m1499 -70 c4
-7 3 -8 -4 -4 -7 4 -12 2 -12 -5 0 -7 -3 -10 -6 -6 -6 5 3 27 11 27 2 0 7 -5
11 -12z m-1469 -20 c-3 -8 -6 -5 -6 6 -1 11 2 17 5 13 3 -3 4 -12 1 -19z
m1688 -198 c3 -6 -1 -7 -9 -4 -18 7 -21 14 -7 14 6 0 13 -4 16 -10z m315 -72
c0 -25 -3 -29 -10 -18 -13 20 -13 50 0 50 6 0 10 -15 10 -32z m-2093 -30 c-3
-7 -5 -2 -5 12 0 14 2 19 5 13 2 -7 2 -19 0 -25z m2073 -32 c0 -3 -4 -8 -10
-11 -5 -3 -10 -1 -10 4 0 6 5 11 10 11 6 0 10 -2 10 -4z m-2055 -16 c3 -5 1
-10 -4 -10 -6 0 -11 5 -11 10 0 6 2 10 4 10 3 0 8 -4 11 -10z m1260 -30 c-3
-5 -12 -10 -18 -10 -7 0 -6 4 3 10 19 12 23 12 15 0z"/>
<path d="M2645 3735 c2 -26 -4 -52 -16 -74 -21 -36 -18 -56 5 -26 11 16 23 20
70 24 5 1 1 10 -9 21 -10 11 -15 23 -12 26 3 4 -1 13 -9 21 -8 8 -11 19 -8 25
4 6 2 8 -4 4 -5 -3 -12 0 -15 6 -3 7 -3 -5 -2 -27z m25 -42 c0 -25 -15 -12
-17 14 -1 19 1 22 8 12 5 -8 9 -20 9 -26z"/>
<path d="M2698 3693 c7 -3 16 -2 19 1 4 3 -2 6 -13 5 -11 0 -14 -3 -6 -6z"/>
<path d="M2680 3625 c-7 -8 -16 -12 -22 -9 -5 3 -15 1 -22 -5 -8 -7 -18 -11
-22 -9 -11 3 -74 -53 -74 -65 0 -5 6 -7 14 -4 8 3 17 -1 20 -9 9 -24 7 -29 -5
-17 -6 6 -18 9 -27 6 -10 -4 -13 -2 -8 5 11 18 -7 14 -61 -12 -35 -18 -86 -29
-185 -42 -101 -12 -138 -20 -138 -30 0 -8 -8 -14 -18 -14 -9 0 -23 -9 -30 -20
-7 -12 -17 -18 -22 -15 -10 6 -12 1 -14 -27 -1 -7 -5 -16 -10 -20 -12 -8 6
-134 20 -131 5 1 11 -10 12 -23 1 -15 -2 -22 -8 -19 -12 8 -13 -15 -1 -33 11
-18 21 7 21 53 0 46 -10 71 -21 53 -5 -8 -9 7 -9 40 0 38 5 57 19 71 11 11 21
27 23 37 2 11 12 20 23 22 19 3 19 2 1 -12 -11 -9 -16 -22 -12 -31 4 -10 2
-14 -6 -9 -7 5 -8 3 -3 -6 7 -11 12 -9 23 8 8 12 21 22 29 22 8 0 11 5 7 11
-4 8 1 9 17 4 20 -5 21 -4 9 5 -12 10 -11 11 7 7 13 -3 40 -1 60 5 21 5 48 9
61 9 16 -1 22 5 23 22 0 12 3 16 6 10 2 -7 14 -13 26 -12 21 0 21 1 2 9 -18 8
-18 9 -2 9 10 1 20 -6 23 -14 7 -17 44 -21 44 -5 0 6 -6 10 -12 10 -7 1 -2 9
11 20 24 21 46 17 37 -6 -3 -7 0 -16 6 -20 7 -5 8 -2 3 6 -5 8 -3 11 6 8 34
-13 155 87 138 113 -5 8 -9 17 -9 21 0 13 52 0 68 -17 16 -16 16 -17 -5 -6
-12 6 -28 11 -35 11 -7 0 8 -10 33 -22 26 -12 55 -34 65 -49 19 -28 37 -29 32
-2 -2 9 3 17 10 19 7 1 9 0 4 -2 -11 -6 -5 -89 7 -112 11 -22 24 -97 24 -142
0 -20 2 -26 4 -12 2 12 9 22 14 22 5 0 10 21 10 48 1 42 2 44 9 17 l8 -30 0
30 c1 32 -16 82 -18 55 -1 -8 -6 -4 -11 10 -6 14 -8 33 -5 43 6 25 -3 47 -20
47 -8 0 -14 5 -14 10 0 6 5 10 11 10 22 0 -36 63 -73 80 -22 9 -39 21 -38 26
3 15 -17 15 -30 -1z m89 -54 c19 -15 22 -21 13 -38 -6 -11 -8 -24 -4 -28 4 -5
1 -5 -6 -1 -9 5 -11 17 -8 32 6 22 4 24 -21 19 -21 -4 -23 -3 -8 3 19 9 19 9
0 20 -14 8 -16 11 -5 11 8 1 26 -8 39 -18z m-162 -28 c-9 -9 -20 -13 -24 -9
-4 4 1 14 11 22 25 18 35 8 13 -13z m-65 -47 c9 0 14 -4 11 -9 -2 -4 -14 -5
-25 -1 -14 4 -18 2 -14 -5 10 -16 -9 -14 -23 2 -14 17 -2 30 18 21 9 -4 24 -7
33 -8z m-208 -55 c3 -4 -8 -8 -23 -7 -16 1 -27 4 -24 9 6 10 41 9 47 -2z m-65
-17 c2 -2 -14 -4 -37 -4 -22 0 -49 -2 -59 -5 -10 -3 -4 1 12 9 25 12 70 12 84
0z m575 -64 c4 -31 3 -37 -2 -20 -18 53 -24 85 -13 75 5 -5 12 -30 15 -55z"/>
<path d="M2090 3329 c0 -38 16 -56 22 -25 3 15 0 31 -8 37 -11 9 -14 7 -14
-12z"/>
<path d="M2862 3276 c-7 -15 -12 -38 -12 -52 0 -14 -4 -23 -9 -20 -5 4 -6 -4
-3 -16 5 -19 10 -11 24 36 20 65 20 95 0 52z"/>
<path d="M2830 3139 c0 -5 5 -7 10 -4 6 3 10 8 10 11 0 2 -4 4 -10 4 -5 0 -10
-5 -10 -11z"/>
<path d="M3345 2585 c-11 -11 -20 -25 -20 -30 0 -6 -10 -24 -23 -39 -12 -16
-22 -25 -22 -20 0 4 10 18 22 31 12 13 17 23 12 23 -6 0 -20 -11 -32 -24 -16
-19 -18 -27 -8 -35 9 -8 21 -2 44 22 18 18 29 37 25 42 -5 4 -2 5 5 1 13 -8
26 14 20 36 -2 10 -8 8 -23 -7z"/>
<path d="M3500 2591 c0 -28 97 -127 119 -123 7 2 11 -1 8 -5 -9 -14 38 -9 56
6 18 15 23 46 8 55 -5 4 -7 -2 -4 -12 4 -16 -1 -18 -32 -14 -25 3 -40 0 -46
-9 -7 -11 -9 -9 -9 6 0 12 -22 43 -50 70 -45 45 -50 47 -50 26z m73 -64 c10
-10 17 -20 15 -23 -3 -2 -20 13 -39 33 -33 36 -15 28 24 -10z"/>
<path d="M3175 2520 c-10 -16 5 -50 21 -50 8 0 12 -4 9 -10 -10 -17 35 -11 53
7 16 16 16 16 -6 11 -19 -5 -21 -4 -11 8 9 11 7 14 -15 14 -16 0 -25 -4 -21
-10 3 -5 2 -10 -3 -10 -6 0 -13 7 -16 16 -3 8 -2 12 4 9 6 -3 10 -2 10 4 0 15
-18 23 -25 11z"/>
<path d="M2400 2248 c0 -7 -5 -44 -10 -82 -7 -47 -7 -73 0 -80 12 -12 13 -29
1 -22 -10 6 -15 -14 -26 -96 -5 -42 -1 -57 42 -147 26 -55 50 -101 53 -101 3
0 25 45 49 99 43 98 43 100 36 180 -8 87 -20 105 -30 44 -10 -63 -14 -71 -11
-20 2 26 0 50 -5 53 -5 3 -9 14 -9 25 0 11 4 18 10 14 5 -3 7 -12 3 -20 -3 -8
-1 -15 5 -15 14 0 21 46 14 112 -6 66 -13 75 -43 54 -19 -13 -25 -13 -50 0
-23 11 -29 12 -29 2z m110 -65 c5 -20 5 -33 -1 -33 -5 0 -9 10 -10 23 0 21 -1
21 -10 2 -6 -15 -8 -8 -4 25 5 56 6 60 12 35 2 -11 8 -35 13 -52z m-66 -100
c-3 -38 -9 -71 -13 -76 -9 -9 -14 96 -6 123 13 42 23 17 19 -47z m-47 25 c-3
-8 -6 -5 -6 6 -1 11 2 17 5 13 3 -3 4 -12 1 -19z m6 -106 c4 -21 3 -31 -3 -27
-6 3 -10 1 -10 -4 0 -6 4 -11 9 -11 5 0 12 -7 15 -16 4 -12 2 -15 -9 -10 -12
4 -14 0 -9 -22 l6 -27 -17 30 c-12 23 -14 35 -5 53 5 13 8 28 4 33 -6 10 3 46
10 38 2 -2 6 -19 9 -37z m124 16 c-3 -8 -6 -5 -6 6 -1 11 2 17 5 13 3 -3 4
-12 1 -19z m-37 -40 c0 -13 3 -34 7 -47 5 -18 3 -22 -6 -16 -10 6 -11 2 -6
-16 7 -21 6 -22 -9 -7 -16 17 -21 63 -10 92 9 24 24 19 24 -6z m47 -40 c-3 -8
-6 -5 -6 6 -1 11 2 17 5 13 3 -3 4 -12 1 -19z m-26 -69 c-22 -36 -29 -33 -10
4 7 12 12 35 12 52 l-1 30 10 -26 c7 -21 4 -34 -11 -60z m-56 -36 c-2 -10 -4
-22 -5 -28 -2 -24 -29 43 -30 75 l0 35 19 -32 c11 -17 18 -39 16 -50z m35 -19
c0 -8 -4 -12 -10 -9 -5 3 -10 13 -10 21 0 8 5 12 10 9 6 -3 10 -13 10 -21z
m-23 -46 c-3 -8 -6 -5 -6 6 -1 11 2 17 5 13 3 -3 4 -12 1 -19z"/>
<path d="M3381 2200 c-2 -31 11 -58 34 -70 20 -11 27 -10 47 6 13 11 24 30 26
44 2 21 1 23 -10 10 -7 -9 -20 -15 -28 -14 -8 0 -25 2 -37 2 -12 1 -24 10 -26
20 -3 12 -5 13 -6 2z m61 -45 c11 2 15 -2 11 -11 -3 -8 -7 -14 -10 -14 -13 0
-43 22 -43 32 0 7 4 7 13 1 6 -6 20 -9 29 -8z"/>
</g>
</svg>
