<?xml version="1.0" standalone="no"?>
<!DOCTYPE svg PUBLIC "-//W3C//DTD SVG 20010904//EN"
 "http://www.w3.org/TR/2001/REC-SVG-20010904/DTD/svg10.dtd">
<svg version="1.0" xmlns="http://www.w3.org/2000/svg"
 width="150.000000pt" height="150.000000pt" viewBox="0 0 150.000000 150.000000"
 preserveAspectRatio="xMidYMid meet">

<g transform="translate(0.000000,150.000000) scale(0.100000,-0.100000)"
fill="#000000" stroke="none">
<path d="M632 1278 c-10 -18 -31 -57 -45 -85 -15 -29 -65 -118 -112 -198 -47
-80 -85 -150 -85 -157 0 -22 143 -444 147 -433 2 6 36 107 77 225 l74 215 66
3 66 3 0 -311 0 -310 70 0 71 0 -34 30 c-52 45 -80 170 -38 170 10 0 32 3 49
6 30 6 31 5 37 -40 9 -55 39 -82 80 -72 51 13 54 32 55 293 l1 242 -37 65
c-21 36 -41 66 -45 66 -3 0 -26 -35 -50 -79 l-44 -78 -82 136 c-76 126 -132
224 -176 307 -9 19 -19 34 -21 34 -3 0 -13 -15 -24 -32z"/>
<path d="M336 564 c3 -82 7 -191 10 -241 l6 -93 65 0 c50 0 64 3 60 13 -3 8
-35 114 -72 238 -37 123 -69 226 -70 228 -2 2 -2 -64 1 -145z"/>
<path d="M656 488 c-38 -123 -71 -231 -73 -240 -5 -16 3 -18 60 -18 l65 0 6
93 c5 72 13 387 11 387 -1 0 -32 -100 -69 -222z"/>
<path d="M1219 510 c-5 -195 -13 -225 -72 -260 l-32 -20 178 0 178 0 -16 30
c-8 16 -54 95 -100 175 -47 79 -96 168 -109 197 l-23 53 -4 -175z"/>
<path d="M191 502 c-25 -42 -48 -79 -51 -82 -3 -3 -30 -45 -58 -95 l-52 -90
101 -3 c56 -1 103 -1 106 1 2 2 2 81 1 175 l-3 171 -44 -77z"/>
</g>
</svg>
