<?xml version="1.0" standalone="no"?>
<!DOCTYPE svg PUBLIC "-//W3C//DTD SVG 20010904//EN"
 "http://www.w3.org/TR/2001/REC-SVG-20010904/DTD/svg10.dtd">
<svg version="1.0" xmlns="http://www.w3.org/2000/svg"
 width="600.000000pt" height="600.000000pt" viewBox="0 0 600.000000 600.000000"
 preserveAspectRatio="xMidYMid meet">

<g transform="translate(0.000000,600.000000) scale(0.100000,-0.100000)"
fill="#000000" stroke="none">
<path d="M3180 5969 c-121 -24 -148 -43 -524 -384 -166 -150 -321 -289 -345
-309 -120 -100 -333 -191 -493 -210 -45 -6 -58 -11 -58 -24 1 -39 13 -43 91
-32 211 31 412 133 595 301 624 576 657 601 807 601 70 0 93 -4 140 -27 72
-34 143 -104 176 -175 38 -80 37 -192 -2 -272 -52 -107 -161 -177 -365 -237
-105 -30 -184 -69 -201 -99 -6 -9 -11 -14 -11 -10 0 4 -17 1 -37 -6 l-38 -13
-1 -152 c0 -116 2 -151 12 -151 7 0 16 5 19 10 9 15 25 12 25 -4 0 -8 -20 -24
-45 -36 -47 -23 -81 -67 -91 -118 -7 -34 10 -98 34 -124 13 -16 12 -21 -12
-53 -40 -52 -59 -104 -57 -157 l1 -48 -740 0 c-410 0 -740 -4 -740 -9 0 -4 8
-19 18 -32 10 -13 56 -89 102 -169 250 -435 1215 -2107 1382 -2395 61 -104
120 -206 130 -225 11 -19 23 -38 27 -42 7 -8 14 5 243 402 75 129 303 525 508
880 205 355 414 717 465 805 301 523 423 733 439 758 l18 27 -756 0 -756 0 0
58 c0 40 -8 73 -25 110 l-25 54 27 34 c31 41 42 118 23 164 -14 34 -73 90 -95
90 -10 0 -15 10 -15 30 0 25 4 30 25 30 34 0 32 28 -2 33 l-28 4 28 2 c17 0
27 7 27 16 0 9 -10 15 -27 16 l-28 1 33 14 c34 15 35 39 1 29 -11 -4 -19 -2
-19 4 0 6 9 11 20 11 27 0 25 28 -2 33 l-23 4 23 2 c12 0 22 7 22 15 0 7 -10
17 -22 21 l-23 8 23 4 c25 5 30 33 5 33 -15 0 -15 2 1 19 19 21 47 32 217 86
130 40 246 108 293 170 183 239 48 578 -254 635 -60 11 -77 11 -140 -1z m-210
-919 c-20 -13 -33 -13 -25 0 3 6 14 10 23 10 15 0 15 -2 2 -10z m10 -40 c0 -5
-10 -10 -22 -9 -22 0 -22 1 -3 9 11 5 21 9 23 9 1 1 2 -3 2 -9z m0 -44 c0 -2
-9 -6 -20 -9 -11 -3 -18 -1 -14 4 5 9 34 13 34 5z m-13 -52 c-3 -3 -12 -4 -19
-1 -8 3 -5 6 6 6 11 1 17 -2 13 -5z m3 -38 c0 -2 -7 -7 -16 -10 -8 -3 -12 -2
-9 4 6 10 25 14 25 6z m0 -46 c0 -5 -8 -10 -17 -10 -15 0 -16 2 -3 10 19 12
20 12 20 0z m88 -438 c20 -46 27 -84 24 -129 -2 -22 -5 -23 -106 -23 -64 0
-107 4 -111 11 -22 34 3 118 51 169 20 21 30 25 73 22 48 -4 50 -5 69 -50z
m-171 -248 c60 -32 142 -31 190 4 l31 22 711 0 c391 0 711 -3 711 -6 0 -3 -11
-24 -24 -47 -13 -23 -234 -406 -491 -852 -665 -1151 -708 -1227 -839 -1455
-155 -268 -186 -320 -194 -320 -4 0 -52 78 -106 173 -55 94 -158 273 -230 397
-71 124 -162 281 -201 350 -81 140 -953 1651 -992 1718 l-25 42 706 0 705 0
48 -26z"/>
<path d="M1592 4072 c6 -15 261 -457 268 -465 4 -5 24 3 44 17 40 27 118 53
189 62 39 6 106 -7 172 -32 12 -5 15 4 15 57 0 117 49 242 125 322 l46 47
-203 0 c-182 0 -200 -1 -181 -15 58 -40 124 -165 138 -260 l8 -48 -34 7 c-60
12 -138 54 -190 103 -59 54 -88 97 -114 166 l-18 47 -134 0 c-74 0 -133 -4
-131 -8z"/>
<path d="M3420 4064 c-25 -8 -77 -17 -116 -21 l-71 -6 20 -61 c16 -46 21 -88
21 -171 l1 -110 56 14 56 15 -13 33 c-18 43 -18 109 2 166 l16 47 39 -23 c35
-19 39 -25 33 -47 -29 -108 24 -182 96 -133 91 60 130 133 130 241 l0 72 -112
-1 c-67 -1 -131 -7 -158 -15z"/>
<path d="M3778 3988 c-3 -82 -8 -100 -37 -156 -19 -34 -54 -81 -79 -104 -26
-24 -40 -44 -34 -46 7 -2 40 -22 73 -44 105 -70 179 -184 201 -308 l10 -61 63
108 c34 59 88 153 120 208 31 55 59 103 61 106 2 4 -24 -5 -59 -19 -83 -34
-205 -35 -289 -3 -32 12 -58 26 -58 31 0 17 87 83 147 112 99 47 180 53 313
22 23 -5 30 3 85 98 32 57 65 113 73 126 l14 22 -300 0 -300 0 -4 -92z"/>
<path d="M2765 3827 c-21 -12 -54 -42 -72 -65 -82 -108 -9 -258 143 -293 42
-9 60 -9 106 5 53 15 56 18 81 73 14 32 28 74 32 94 13 72 -31 161 -96 194
-44 23 -146 19 -194 -8z"/>
<path d="M2057 3589 c-27 -4 -69 -21 -97 -39 l-48 -31 55 -97 c31 -53 75 -118
99 -144 24 -26 57 -67 72 -92 l29 -45 64 65 c65 66 140 117 192 130 l29 7 -43
43 -43 44 -41 -39 c-44 -43 -102 -71 -146 -71 -28 0 -29 2 -29 45 0 45 0 45
45 56 28 7 54 22 70 40 62 75 -60 149 -208 128z"/>
<path d="M2970 3349 c-19 -17 -52 -37 -72 -46 -37 -15 -51 -33 -25 -33 7 0 39
-16 71 -35 32 -19 60 -35 61 -35 2 0 4 41 4 90 0 50 -1 90 -2 90 -1 -1 -18
-14 -37 -31z"/>
<path d="M3300 3371 c-128 -39 -209 -178 -153 -261 68 -103 161 -150 244 -125
70 21 139 119 139 196 0 133 -112 226 -230 190z"/>
<path d="M2660 3203 c-14 -2 -50 -16 -79 -31 -62 -31 -101 -89 -101 -152 0
-54 47 -138 98 -174 84 -60 212 -42 260 36 59 95 46 207 -33 285 -44 44 -63
49 -145 36z"/>
<path d="M3155 2784 c-4 -16 -11 -39 -16 -52 -14 -34 -11 -42 14 -42 37 -1
101 -35 140 -76 20 -22 37 -42 37 -46 0 -4 -18 -17 -40 -28 l-39 -20 -16 24
c-34 52 -131 66 -149 21 -24 -63 21 -193 85 -245 41 -33 114 -69 139 -70 21 0
80 112 80 152 0 50 26 141 60 207 l30 59 -53 12 c-97 20 -189 63 -244 113
l-22 20 -6 -29z"/>
<path d="M2925 2479 c-112 -64 -258 -81 -375 -44 -13 4 11 -45 78 -161 l97
-167 11 39 c21 73 61 139 117 192 31 28 60 52 65 52 18 0 35 -100 30 -178 -5
-87 -33 -161 -85 -229 -18 -24 -33 -47 -33 -52 0 -16 145 -254 154 -254 5 1
20 19 32 41 34 60 171 297 217 375 22 37 38 69 36 71 -2 2 -32 16 -67 31 -110
49 -212 186 -212 285 0 36 -1 36 -65 -1z"/>
</g>
</svg>
